<svg id="Layer_1" data-name="Layer 1" xmlns="http://www.w3.org/2000/svg" viewBox="0 0 279.84 408.87"><defs><style>.cls-1{fill:#fffef3;stroke:#fffef3;stroke-linecap:round;stroke-linejoin:round;stroke-width:4px;}</style></defs><path class="cls-1" d="M152.17,555c-1.31-2.65,19.52-15.61,35.86-25.78,4.18-2.6,12.48-7.68,38.94-22.35,23.37-12.95,45.37-24.88,45.37-24.88,1.74-.95,17.43-9.45,37.21-21.53,7.49-4.58,14.73-9.15,22.58-17,7.53-7.56,12.32-12.37,14.16-20.41,3.36-14.61-5.87-27.43-7.68-29.94a44.53,44.53,0,0,0-10.8-10.46,58,58,0,0,0-18.26-7.8c-7.86-2.09-11.31-1.64-11.5-2.89-.35-2.37,11.38-7.55,23.63-8.26a52.73,52.73,0,0,1,27.74,6.2,51.94,51.94,0,0,1,19.3,18,50.27,50.27,0,0,1,7.21,29.27c-.23,3.53-1.4,15.53-9.51,26.13-2.94,3.85-6.39,7-11.71,11.82-1.34,1.22-5.66,5.1-11.32,9.45-17.84,13.67-42.9,27.18-48.74,30.3-9.71,5.2-16.54,8.56-29,14.71-6.61,3.25-25.16,12.4-41,19.54C198.34,540.92,154,558.66,152.17,555Z" transform="translate(-150.11 -218.4)"/><path class="cls-1" d="M346.17,599.61c-5.33,17.32-6.67,25.75-8.86,25.65-3.56-.16-7.83-22.65-5.36-45.85,2.35-22,11.47-40.82,29.62-77.48,1.51-3.06,7.68-13.72,14.55-28.64,2.79-6.06,4.83-10.52,7.23-16.89,3.64-9.63,7.67-20.51,9-34.81a62.12,62.12,0,0,0,.21-13.9,59.67,59.67,0,0,0-8.22-23.63,67.88,67.88,0,0,0-22.22-21.77,55.82,55.82,0,0,0-22.41-8c-7.1-.8-10.56.42-10.8-.49-.45-1.72,11.37-7.79,24.53-9.55a57.67,57.67,0,0,1,26.33,2.49,55.31,55.31,0,0,1,15.91,8.88,64,64,0,0,1,16.89,19.92c7.66,14.2,7.64,27.56,7.53,36.07-.21,15.22-4,25.58-10.77,44.43-4.6,12.71-10.21,24.44-21.44,47.89-4.64,9.69-7,14.49-10.07,20.32-5.91,11.31-8.14,14.4-14,28.31C352.26,579.82,346.17,599.61,346.17,599.61Z" transform="translate(-150.11 -218.4)"/><circle class="cls-1" cx="141.42" cy="82.95" r="41.76"/><path class="cls-1" d="M392.18,284.19c12.39-8.83,18.58-13.24,20.63-20.91,2.57-9.67-2.55-19-5.3-24-6.84-12.42-16.56-17.16-15.64-18.58s12.69,2.11,21.88,10.88c3.38,3.21,12.9,12.29,14.08,27,1.07,13.32-5.38,23.07-8,27-5.1,7.72-12.17,12.35-26.1,21.31-5.87,3.78-13.92,8.15-29.91,17.07-17.8,9.93-20.8,11.58-27.88,15.61-8.28,4.73-14.09,8-22.11,12.8-21.39,12.72-21.22,12.94-27.28,16.31-5,2.78-7.49,4.2-14.66,8.16-10.3,5.69-15.45,8.53-18.85,11.69s-11,10.19-12.27,20.91c-1.12,9.2,2.85,16.55,4.74,20.07,6.16,11.43,15.33,15.78,14.38,17.33s-9.58-1.21-16.79-6.28a42.22,42.22,0,0,1-15.89-19.86,41,41,0,0,1-1.87-22.19c2.19-10.81,8.46-17.5,13.14-22.51,5.62-6,12.93-10.41,27.32-19,5.13-3.05,10.6-6.06,21.52-12.09l22.06-12.18c15.45-8.57,12.44-7.41,32.36-18.55,7.7-4.31,9.91-5.72,17.62-10.25,5.91-3.48,7.9-4.6,12.06-7C382,290.75,387.34,287.63,392.18,284.19Z" transform="translate(-150.11 -218.4)"/></svg>